<mxfile host="app.diagrams.net" agent="Mozilla/5.0 (X11; Linux x86_64; rv:128.0) Gecko/20100101 Firefox/128.0" version="24.7.5">
  <diagram name="Page-1" id="GGHERM4O-z84CeHh8zqT">
    <mxGraphModel dx="1434" dy="697" grid="1" gridSize="10" guides="1" tooltips="1" connect="1" arrows="1" fold="1" page="1" pageScale="1" pageWidth="827" pageHeight="1169" math="0" shadow="0">
      <root>
        <mxCell id="0" />
        <mxCell id="1" parent="0" />
        <mxCell id="uYHhfie6ALKdoTaWHpwP-2" value="" style="shape=hexagon;perimeter=hexagonPerimeter2;whiteSpace=wrap;html=1;fixedSize=1;size=190;fillColor=#0050ef;strokeColor=#001DBC;fontColor=#ffffff;" vertex="1" parent="1">
          <mxGeometry x="40" y="40" width="760" height="610" as="geometry" />
        </mxCell>
        <mxCell id="uYHhfie6ALKdoTaWHpwP-3" value="" style="shape=hexagon;perimeter=hexagonPerimeter2;whiteSpace=wrap;html=1;fixedSize=1;size=130;fillColor=#a20025;strokeColor=#6F0000;fontColor=#ffffff;" vertex="1" parent="1">
          <mxGeometry x="160" y="125" width="520" height="440" as="geometry" />
        </mxCell>
        <mxCell id="uYHhfie6ALKdoTaWHpwP-4" value="&lt;div align=&quot;center&quot;&gt;&lt;font style=&quot;font-size: 30px;&quot;&gt;Adapters&lt;/font&gt;&lt;/div&gt;" style="text;html=1;align=center;verticalAlign=middle;whiteSpace=wrap;rounded=0;" vertex="1" parent="1">
          <mxGeometry x="384" y="70" width="60" height="30" as="geometry" />
        </mxCell>
        <mxCell id="uYHhfie6ALKdoTaWHpwP-5" value="&lt;font color=&quot;#ffffff&quot; style=&quot;font-size: 22px;&quot;&gt;Ports&lt;/font&gt;" style="text;html=1;align=center;verticalAlign=middle;whiteSpace=wrap;rounded=0;" vertex="1" parent="1">
          <mxGeometry x="384" y="150" width="60" height="30" as="geometry" />
        </mxCell>
        <mxCell id="uYHhfie6ALKdoTaWHpwP-6" value="&lt;font style=&quot;font-size: 24px;&quot;&gt;Application&lt;/font&gt;" style="shape=hexagon;perimeter=hexagonPerimeter2;whiteSpace=wrap;html=1;fixedSize=1;size=80;fillColor=#d5e8d4;strokeColor=#82b366;" vertex="1" parent="1">
          <mxGeometry x="240" y="195" width="360" height="300" as="geometry" />
        </mxCell>
        <mxCell id="uYHhfie6ALKdoTaWHpwP-8" value="&lt;font style=&quot;font-size: 20px;&quot;&gt;Notification&lt;/font&gt;" style="rounded=1;whiteSpace=wrap;html=1;rotation=-60;fillColor=#fa6800;fontColor=#000000;strokeColor=#C73500;" vertex="1" parent="1">
          <mxGeometry x="210" y="240" width="120" height="50" as="geometry" />
        </mxCell>
        <mxCell id="uYHhfie6ALKdoTaWHpwP-9" value="&lt;font style=&quot;font-size: 22px;&quot;&gt;API&lt;/font&gt;" style="rounded=1;whiteSpace=wrap;html=1;rotation=60;fillColor=#fa6800;fontColor=#000000;strokeColor=#C73500;" vertex="1" parent="1">
          <mxGeometry x="220" y="400" width="120" height="50" as="geometry" />
        </mxCell>
        <mxCell id="uYHhfie6ALKdoTaWHpwP-10" value="&lt;font style=&quot;font-size: 22px;&quot;&gt;File I/O&lt;/font&gt;" style="rounded=1;whiteSpace=wrap;html=1;rotation=60;fillColor=#fa6800;fontColor=#000000;strokeColor=#C73500;" vertex="1" parent="1">
          <mxGeometry x="500" y="240" width="120" height="50" as="geometry" />
        </mxCell>
        <mxCell id="uYHhfie6ALKdoTaWHpwP-11" value="&lt;font style=&quot;font-size: 20px;&quot;&gt;Storage&lt;/font&gt;" style="rounded=1;whiteSpace=wrap;html=1;rotation=-60;fillColor=#fa6800;fontColor=#000000;strokeColor=#C73500;" vertex="1" parent="1">
          <mxGeometry x="500" y="400" width="120" height="50" as="geometry" />
        </mxCell>
      </root>
    </mxGraphModel>
  </diagram>
</mxfile>
